<svg width="245" height="245" viewBox="0 0 245 245" fill="none" xmlns="http://www.w3.org/2000/svg">
<g clip-path="url(#clip0_1067_74)">
<path d="M122.15 244.3C189.612 244.3 244.3 189.612 244.3 122.15C244.3 54.6884 189.612 0 122.15 0C54.6884 0 0 54.6884 0 122.15C0 189.612 54.6884 244.3 122.15 244.3Z" fill="#343A40"/>
<path d="M116.6 165.16H116.64V76.67H116.6V61.2L28.1 106.71V137.81L116.59 183.32V165.16H116.6ZM44.92 122.26L93.89 97.99V146.52L44.92 122.25V122.26Z" fill="#F4F4F4"/>
<path d="M127.71 183.11L216.2 137.6V106.5L127.71 60.99V79.15H127.67V167.64H127.71V183.11ZM199.39 122.05L150.42 146.32V97.79L199.39 122.06V122.05Z" fill="#EF6C00"/>
</g>
<defs>
<clipPath id="clip0_1067_74">
<rect width="244.31" height="244.31" fill="white"/>
</clipPath>
</defs>
</svg>
