<svg width="222" height="222" viewBox="0 0 222 222" fill="none" xmlns="http://www.w3.org/2000/svg">
<g clip-path="url(#clip0_1067_87)">
<path d="M110.995 221.991C172.297 221.991 221.991 172.297 221.991 110.995C221.991 49.6944 172.297 0 110.995 0C49.6944 0 0 49.6944 0 110.995C0 172.297 49.6944 221.991 110.995 221.991Z" fill="#F4F4F4"/>
<path d="M105.952 150.078H105.989V69.6686H105.952V55.6113L25.534 96.9654V125.225L105.943 166.58V150.078H105.952ZM40.818 111.095L85.3161 89.0417V133.14L40.818 111.086V111.095Z" fill="#343A40"/>
<path d="M116.048 166.389L196.457 125.035V96.7746L116.048 55.4205V71.9222H116.011V152.331H116.048V166.389ZM181.182 110.905L136.684 132.958V88.86L181.182 110.914V110.905Z" fill="#EF6C00"/>
</g>
<defs>
<clipPath id="clip0_1067_87">
<rect width="222" height="222" fill="white"/>
</clipPath>
</defs>
</svg>
