<svg width="20" height="20" viewBox="0 0 20 20" fill="none" xmlns="http://www.w3.org/2000/svg">
<rect width="20" height="20" rx="10" fill="#EF6C00"/>
<path d="M8.91667 12.75C8.91667 11.75 9.01736 11.0035 9.21875 10.5104C9.42014 10.0174 9.84028 9.49306 10.4792 8.9375C11.0764 8.42361 11.4792 8.01042 11.6875 7.69792C11.8958 7.38542 12 7.03472 12 6.64583C12 6.11806 11.8125 5.68403 11.4375 5.34375C11.0625 5.00347 10.5833 4.83333 10 4.83333C9.48611 4.83333 9.03472 4.99306 8.64583 5.3125C8.25694 5.63194 7.97917 6.06944 7.8125 6.625L5.8125 5.79167C6.10417 4.875 6.63542 4.13889 7.40625 3.58333C8.17708 3.02778 9.04167 2.75 10 2.75C11.2361 2.75 12.2431 3.10764 13.0208 3.82292C13.7986 4.53819 14.1875 5.45833 14.1875 6.58333C14.1875 7.16667 14.059 7.69792 13.8021 8.17708C13.5451 8.65625 13.0833 9.20833 12.4167 9.83333C11.8472 10.3611 11.4965 10.7812 11.3646 11.0938C11.2326 11.4062 11.1597 11.9583 11.1458 12.75H8.91667ZM10 17.25C9.58333 17.25 9.22917 17.1042 8.9375 16.8125C8.64583 16.5208 8.5 16.1667 8.5 15.75C8.5 15.3333 8.64583 14.9792 8.9375 14.6875C9.22917 14.3958 9.58333 14.25 10 14.25C10.4167 14.25 10.7708 14.3958 11.0625 14.6875C11.3542 14.9792 11.5 15.3333 11.5 15.75C11.5 16.1667 11.3542 16.5208 11.0625 16.8125C10.7708 17.1042 10.4167 17.25 10 17.25Z" fill="white"/>
</svg>
