<svg width="18" height="18" viewBox="0 0 18 18" fill="none" xmlns="http://www.w3.org/2000/svg">
<path d="M12.7549 11.255H11.9649L11.6849 10.985C12.6988 9.80903 13.256 8.3077 13.2549 6.75501C13.2549 5.46943 12.8737 4.21272 12.1594 3.1438C11.4452 2.07488 10.43 1.24176 9.24233 0.749791C8.05461 0.257821 6.74767 0.1291 5.4868 0.379903C4.22592 0.630707 3.06773 1.24977 2.15869 2.15881C1.24965 3.06785 0.630585 4.22604 0.379781 5.48692C0.128977 6.7478 0.257699 8.05473 0.749669 9.24245C1.24164 10.4302 2.07476 11.4453 3.14368 12.1596C4.2126 12.8738 5.46931 13.255 6.75489 13.255C8.36489 13.255 9.84488 12.665 10.9849 11.685L11.2549 11.965V12.755L16.2549 17.745L17.7449 16.255L12.7549 11.255ZM6.75489 11.255C4.26489 11.255 2.25489 9.24501 2.25489 6.75501C2.25489 4.26501 4.26489 2.25501 6.75489 2.25501C9.24489 2.25501 11.2549 4.26501 11.2549 6.75501C11.2549 9.24501 9.24489 11.255 6.75489 11.255Z" fill="#E9E9E9"/>
</svg>
