<svg width="18" height="19" viewBox="0 0 18 19" fill="none" xmlns="http://www.w3.org/2000/svg">
<path d="M12.755 11.7549H11.965L11.685 11.4849C12.6989 10.3089 13.2561 8.80758 13.255 7.25489C13.255 5.96931 12.8738 4.7126 12.1596 3.64368C11.4453 2.57476 10.4302 1.74164 9.24245 1.24967C8.05473 0.757699 6.7478 0.628977 5.48692 0.879781C4.22604 1.13059 3.06785 1.74965 2.15881 2.65869C1.24977 3.56773 0.630707 4.72592 0.379903 5.9868C0.1291 7.24767 0.257821 8.55461 0.749791 9.74233C1.24176 10.93 2.07488 11.9452 3.1438 12.6594C4.21272 13.3737 5.46943 13.7549 6.75501 13.7549C8.36501 13.7549 9.84501 13.1649 10.985 12.1849L11.255 12.4649V13.2549L16.255 18.2449L17.745 16.7549L12.755 11.7549ZM6.75501 11.7549C4.26501 11.7549 2.25501 9.74489 2.25501 7.25489C2.25501 4.76489 4.26501 2.75489 6.75501 2.75489C9.24501 2.75489 11.255 4.76489 11.255 7.25489C11.255 9.74489 9.24501 11.7549 6.75501 11.7549Z" fill="#383838"/>
</svg>
