<svg width="194" height="47" viewBox="0 0 500 99" fill="none" xmlns="http://www.w3.org/2000/svg">
<g clip-path="url(#clip0_1191_1633)">
<path d="M49.498 98.9959C76.835 98.9959 98.9959 76.835 98.9959 49.498C98.9959 22.161 76.835 0 49.498 0C22.161 0 0 22.161 0 49.498C0 76.835 22.161 98.9959 49.498 98.9959Z" fill="#F4F4F4"/>
<path d="M47.249 66.9266H47.2652V31.0684H47.249V24.7997L11.3868 43.2413V55.8438L47.2449 74.2855V66.9266H47.249ZM18.2026 49.5426L38.0464 39.7078V59.3733L18.2026 49.5385V49.5426Z" fill="#343A40"/>
<path d="M51.751 74.2004L87.6092 55.7587V43.1562L51.751 24.7145V32.0734H51.7348V67.9316H51.751V74.2004ZM80.7974 49.4574L60.9536 59.2922V39.6267L80.7974 49.4615V49.4574Z" fill="#EF6C00"/>
</g>
<g clip-path="url(#clip1_1191_1633)">
<path d="M212.591 74.7775H199.583V24.2225H212.591V74.7775Z" fill="#F4F4F4"/>
<path d="M225.526 57.3716C225.526 62.7165 229.863 65.1714 246.338 65.1714C259.996 65.1714 264.115 63.6566 264.115 59.6828C264.115 55.4956 261.224 54.7731 244.823 53.9767C222.782 52.9668 214.037 49.4979 214.037 38.1595C214.037 26.8211 225.382 23.5 244.313 23.5C263.245 23.5 274.955 28.2661 274.955 40.7622H261.947C261.947 35.1997 256.381 33.8286 242.867 33.8286C230.077 33.8286 227.041 35.056 227.041 38.8122C227.041 42.5684 230.077 43.4346 244.818 44.3008C264.764 45.3846 277.12 46.4683 277.12 59.2518C277.12 72.7578 264.329 75.5 245.611 75.5C224.872 75.5 212.513 71.9614 212.513 57.3716H225.521H225.526Z" fill="#F4F4F4"/>
<path d="M290.494 74.7775H277.485V24.2225H290.494V74.7775Z" fill="#F4F4F4"/>
<path d="M290.494 49.4282C290.494 32.6709 300.031 23.5 322.29 23.5C344.548 23.5 354.086 32.7448 354.086 49.4282C354.086 66.1115 344.474 75.5 322.29 75.5C300.105 75.5 290.494 66.2552 290.494 49.4282ZM341.081 49.4282C341.081 39.1735 335.877 34.4074 322.294 34.4074C308.71 34.4074 303.506 39.1037 303.506 49.4282C303.506 59.7526 308.78 64.5967 322.294 64.5967C335.807 64.5967 341.081 59.7567 341.081 49.4282Z" fill="#F4F4F4"/>
<path d="M419.633 24.2225V74.7775H401.93L367.46 36.8582V74.7775H354.451V24.2225H372.085L406.629 62.2116V24.2225H419.637H419.633Z" fill="#F4F4F4"/>
<path d="M190.427 24.2225V24.1979H139.843V24.2225H131L157.017 74.7775H174.794L200.807 24.2225H190.427ZM165.905 65.1714L152.03 37.1989H179.776L165.905 65.1755V65.1714Z" fill="#F4F4F4"/>
<path d="M500 75.188H486.992V24.633H500V75.188Z" fill="#EF6C00"/>
<path d="M488.216 74.9335L462.199 24.3744H444.422L418.405 74.9294H428.784V74.954H479.368V74.9294H488.212L488.216 74.9335ZM453.31 33.9805L467.181 61.9571H439.435L453.306 33.9805H453.31Z" fill="#EF6C00"/>
</g>
<defs>
<clipPath id="clip0_1191_1633">
<rect width="99" height="99" fill="white"/>
</clipPath>
<clipPath id="clip1_1191_1633">
<rect width="369" height="52" fill="white" transform="translate(131 23.5)"/>
</clipPath>
</defs>
</svg>
