<svg width="560" height="79" viewBox="0 0 560 79" fill="none" xmlns="http://www.w3.org/2000/svg">
<g clip-path="url(#clip0_1067_65)">
<path d="M123.824 77.9024H104.082V1.09766H123.824V77.9024Z" fill="#343A40"/>
<path d="M143.453 51.4588C143.453 59.579 150.036 63.3085 175.039 63.3085C195.766 63.3085 202.018 61.0072 202.018 54.9701C202.018 48.6087 197.629 47.511 172.739 46.3011C139.289 44.7669 126.018 39.4969 126.018 22.2712C126.018 5.04547 143.235 0 171.966 0C200.696 0 218.468 7.24078 218.468 26.2252H198.727C198.727 17.7745 190.28 15.6915 169.772 15.6915C150.36 15.6915 145.754 17.5562 145.754 23.2628C145.754 28.9694 150.36 30.2853 172.733 31.6012C203.003 33.2477 221.753 34.8942 221.753 54.3152C221.753 74.8339 202.342 79 173.936 79C142.462 79 123.705 73.624 123.705 51.4588H143.447H143.453Z" fill="#343A40"/>
<path d="M242.05 77.9024H222.308V1.09766H242.05V77.9024Z" fill="#343A40"/>
<path d="M242.05 39.3909C242.05 13.9327 256.524 0 290.304 0C324.084 0 338.558 14.045 338.558 39.3909C338.558 64.7367 323.972 79 290.304 79C256.637 79 242.05 64.955 242.05 39.3909ZM318.823 39.3909C318.823 23.8116 310.925 16.5709 290.31 16.5709C269.696 16.5709 261.798 23.7056 261.798 39.3909C261.798 55.0761 269.802 62.4354 290.31 62.4354C310.819 62.4354 318.823 55.0823 318.823 39.3909Z" fill="#343A40"/>
<path d="M438.034 1.09766V77.9024H411.167L358.855 20.2942V77.9024H339.113V1.09766H365.874L418.298 58.8119V1.09766H438.04H438.034Z" fill="#343A40"/>
<path d="M90.1874 1.09766V1.06024H13.4209V1.09766H0L39.4835 77.9024H66.4624L105.94 1.09766H90.1874ZM52.973 63.3085L31.9159 20.8118H74.0238L52.973 63.3148V63.3085Z" fill="#343A40"/>
<path d="M560 78.526H540.258V1.72133H560V78.526Z" fill="#EF6C00"/>
<path d="M542.116 78.1393L502.632 1.32841H475.653L436.17 78.1331H451.922V78.1705H528.689V78.1331H542.11L542.116 78.1393ZM489.143 15.9222L510.194 58.4252H468.086L489.137 15.9222H489.143Z" fill="#EF6C00"/>
</g>
<defs>
<clipPath id="clip0_1067_65">
<rect width="560" height="79" fill="white"/>
</clipPath>
</defs>
</svg>
