<svg width="551" height="78" viewBox="0 0 551 78" fill="none" xmlns="http://www.w3.org/2000/svg">
<g clip-path="url(#clip0_1067_78)">
<path d="M121.834 76.9162H102.409V1.08376H121.834V76.9162Z" fill="#F4F4F4"/>
<path d="M141.148 50.8075C141.148 58.8248 147.625 62.5071 172.226 62.5071C192.619 62.5071 198.771 60.2349 198.771 54.2743C198.771 47.9934 194.453 46.9096 169.963 45.715C137.051 44.2002 123.993 38.9969 123.993 21.9893C123.993 4.9816 140.933 0 169.202 0C197.471 0 214.957 7.14913 214.957 25.8933H195.533C195.533 17.5495 187.222 15.4929 167.043 15.4929C147.944 15.4929 143.411 17.334 143.411 22.9683C143.411 28.6027 147.944 29.9019 169.956 31.2012C199.74 32.8269 218.19 34.4525 218.19 53.6277C218.19 73.8866 199.09 78 171.14 78C140.173 78 121.717 72.692 121.717 50.8075H141.142H141.148Z" fill="#F4F4F4"/>
<path d="M238.16 76.9162H218.735V1.08376H238.16V76.9162Z" fill="#F4F4F4"/>
<path d="M238.16 38.8922C238.16 13.7564 252.402 0 285.638 0C318.875 0 333.117 13.8672 333.117 38.8922C333.117 63.9173 318.765 78 285.638 78C252.512 78 238.16 64.1328 238.16 38.8922ZM313.699 38.8922C313.699 23.5102 305.928 16.3611 285.645 16.3611C265.361 16.3611 257.59 23.4055 257.59 38.8922C257.59 54.3789 265.466 61.6451 285.645 61.6451C305.824 61.6451 313.699 54.3851 313.699 38.8922Z" fill="#F4F4F4"/>
<path d="M430.994 1.08376V76.9162H404.559L353.087 20.0373V76.9162H333.663V1.08376H359.994L411.576 58.0674V1.08376H431H430.994Z" fill="#F4F4F4"/>
<path d="M88.738 1.08376V1.04681H13.2052V1.08376H0L38.8489 76.9162H65.3943L104.237 1.08376H88.738ZM52.1216 62.5071L31.403 20.5484H72.8341L52.1216 62.5133V62.5071Z" fill="#F4F4F4"/>
<path d="M551 77.532H531.576V1.69954H551V77.532Z" fill="#EF6C00"/>
<path d="M533.403 77.1502L494.554 1.3116H468.009L429.16 77.1441H444.659V77.181H520.192V77.1441H533.397L533.403 77.1502ZM481.282 15.7207L501.994 57.6856H460.563L481.276 15.7207H481.282Z" fill="#EF6C00"/>
</g>
<defs>
<clipPath id="clip0_1067_78">
<rect width="551" height="78" fill="white"/>
</clipPath>
</defs>
</svg>
