<svg width="14" height="15" viewBox="0 0 14 15" fill="none" xmlns="http://www.w3.org/2000/svg">
<path d="M0 12V10.0833C0 9.76389 0.0868056 9.44792 0.260417 9.13542C0.434028 8.82292 0.673611 8.56944 0.979167 8.375C1.74306 7.93056 2.55208 7.59028 3.40625 7.35417C4.26042 7.11806 5.125 7 6 7C6.26389 7 6.51389 7.01042 6.75 7.03125C6.98611 7.05208 7.23611 7.08333 7.5 7.125V12H0ZM6 6C5.16667 6 4.45833 5.70833 3.875 5.125C3.29167 4.54167 3 3.83333 3 3C3 2.16667 3.29167 1.45833 3.875 0.875C4.45833 0.291667 5.16667 0 6 0C6.83333 0 7.54167 0.291667 8.125 0.875C8.70833 1.45833 9 2.16667 9 3C9 3.83333 8.70833 4.54167 8.125 5.125C7.54167 5.70833 6.83333 6 6 6ZM10.5 15V11H9V6H14L12.5 9.5H14L10.5 15Z" fill="#383838"/>
</svg>
