<svg width="17" height="15" viewBox="0 0 17 15" fill="none" xmlns="http://www.w3.org/2000/svg">
<path d="M0 14.5V12.5833C0 12.2222 0.0868056 11.8924 0.260417 11.5938C0.434028 11.2951 0.673611 11.0556 0.979167 10.875C1.72917 10.4306 2.52431 10.0903 3.36458 9.85417C4.20486 9.61806 5.08333 9.5 6 9.5C6.91667 9.5 7.79514 9.61806 8.63542 9.85417C9.4757 10.0903 10.2708 10.4306 11.0208 10.875C11.3264 11.0556 11.566 11.2951 11.7396 11.5938C11.9132 11.8924 12 12.2222 12 12.5833V14.5H0ZM6 8.5C5.16667 8.5 4.45833 8.20833 3.875 7.625C3.29167 7.04167 3 6.33333 3 5.5H2.75C2.675 5.5 2.61458 5.47708 2.56875 5.43125C2.52292 5.38542 2.5 5.325 2.5 5.25C2.5 5.175 2.52292 5.11458 2.56875 5.06875C2.61458 5.02292 2.675 5 2.75 5H3C3 4.44444 3.1375 3.94086 3.4125 3.48925C3.6875 3.03764 4.05 2.68011 4.5 2.41667V3.75C4.5 3.825 4.52292 3.88542 4.56875 3.93125C4.61458 3.97708 4.675 4 4.75 4C4.825 4 4.88542 3.97708 4.93125 3.93125C4.97708 3.88542 5 3.825 5 3.75V2.19079C5.15278 2.13304 5.31184 2.08681 5.47719 2.05208C5.64254 2.01736 5.81615 2 5.99802 2C6.1799 2 6.35417 2.01736 6.52083 2.05208C6.6875 2.08681 6.84722 2.13304 7 2.19079V3.75C7 3.825 7.02292 3.88542 7.06875 3.93125C7.11458 3.97708 7.175 4 7.25 4C7.325 4 7.38542 3.97708 7.43125 3.93125C7.47708 3.88542 7.5 3.825 7.5 3.75V2.41667C7.95 2.67875 8.3125 3.03442 8.5875 3.48369C8.8625 3.93296 9 4.4384 9 5H9.25C9.325 5 9.38542 5.02292 9.43125 5.06875C9.47709 5.11458 9.5 5.175 9.5 5.25C9.5 5.325 9.47709 5.38542 9.43125 5.43125C9.38542 5.47708 9.325 5.5 9.25 5.5H9C9 6.33333 8.70833 7.04167 8.125 7.625C7.54167 8.20833 6.83333 8.5 6 8.5ZM6.00442 7C6.41814 7 6.77083 6.85312 7.0625 6.55937C7.35417 6.26562 7.5 5.9125 7.5 5.5H4.5C4.5 5.91667 4.64731 6.27083 4.94192 6.5625C5.23654 6.85417 5.59071 7 6.00442 7ZM11.4615 9.5L11.3558 8.97267C11.2853 8.94922 11.2188 8.91667 11.1563 8.875C11.0938 8.83333 11.0347 8.79167 10.9792 8.75L10.4792 8.9375L10.125 8.3125L10.5208 7.98642C10.5208 7.95381 10.5174 7.91667 10.5104 7.875C10.5035 7.83333 10.5 7.79167 10.5 7.75C10.5 7.70833 10.5035 7.66667 10.5104 7.625C10.5174 7.58333 10.5208 7.54619 10.5208 7.51358L10.125 7.1875L10.4792 6.5625L10.9792 6.75C11.0347 6.70833 11.0949 6.66667 11.1597 6.625C11.2245 6.58333 11.2893 6.54861 11.3542 6.52083L11.4601 6H12.1667L12.25 6.52083C12.3194 6.54861 12.3889 6.58333 12.4583 6.625C12.5278 6.66667 12.5903 6.70833 12.6458 6.75L13.1458 6.5625L13.5 7.1875L13.1042 7.51358C13.1042 7.54619 13.1076 7.58333 13.1146 7.625C13.1215 7.66667 13.125 7.70833 13.125 7.75C13.125 7.79167 13.1215 7.83333 13.1146 7.875C13.1076 7.91667 13.1042 7.95381 13.1042 7.98642L13.5 8.3125L13.1458 8.9375L12.6458 8.75C12.5903 8.79167 12.5288 8.83234 12.4614 8.87202C12.394 8.9117 12.3235 8.94742 12.25 8.97917L12.1667 9.5H11.4615ZM11.8125 8.27083C11.9653 8.27083 12.0903 8.22222 12.1875 8.125C12.2847 8.02778 12.3333 7.90278 12.3333 7.75C12.3333 7.59722 12.2847 7.47222 12.1875 7.375C12.0903 7.27778 11.9653 7.22917 11.8125 7.22917C11.6597 7.22917 11.5313 7.27778 11.4271 7.375C11.3229 7.47222 11.2708 7.59722 11.2708 7.75C11.2708 7.90278 11.3229 8.02778 11.4271 8.125C11.5313 8.22222 11.6597 8.27083 11.8125 8.27083ZM13.5 5.5L13.3542 4.72917C13.2431 4.70139 13.1458 4.65972 13.0625 4.60417C12.9792 4.54861 12.8958 4.48611 12.8125 4.41667L12.0833 4.66667L11.5833 3.79167L12.1667 3.29167C12.1528 3.23611 12.1424 3.1875 12.1354 3.14583C12.1285 3.10417 12.125 3.05556 12.125 3C12.125 2.94444 12.1285 2.89236 12.1354 2.84375C12.1424 2.79514 12.1528 2.74306 12.1667 2.6875L11.5833 2.1875L12.0833 1.3125L12.8125 1.5625C12.8958 1.49306 12.9792 1.43056 13.0625 1.375C13.1458 1.31944 13.2431 1.27778 13.3542 1.25L13.4974 0.5H14.5L14.6667 1.25C14.7778 1.27778 14.875 1.31944 14.9583 1.375C15.0417 1.43056 15.125 1.49306 15.2083 1.5625L15.9167 1.3125L16.4167 2.1875L15.8542 2.6875C15.8681 2.74306 15.875 2.79514 15.875 2.84375V3C15.875 3.05556 15.8715 3.10764 15.8646 3.15625C15.8576 3.20486 15.8472 3.25694 15.8333 3.3125L16.4167 3.8125L15.9167 4.6875L15.1875 4.4375C15.1042 4.50694 15.0208 4.56944 14.9375 4.625C14.8542 4.68056 14.7569 4.72222 14.6458 4.75L14.5026 5.5H13.5ZM13.9991 3.89583C14.2497 3.89583 14.4618 3.80932 14.6354 3.63629C14.809 3.46328 14.8958 3.25147 14.8958 3.00087C14.8958 2.75029 14.8093 2.53819 14.6363 2.36458C14.4633 2.19097 14.2515 2.10417 14.0009 2.10417C13.7503 2.10417 13.5382 2.19068 13.3646 2.36371C13.191 2.53672 13.1042 2.74853 13.1042 2.99913C13.1042 3.24971 13.1907 3.46181 13.3637 3.63542C13.5367 3.80903 13.7485 3.89583 13.9991 3.89583Z" fill="#383838"/>
</svg>
