<svg width="12" height="13" viewBox="0 0 12 13" fill="none" xmlns="http://www.w3.org/2000/svg">
<path d="M6 6.5C5.16667 6.5 4.45833 6.20833 3.875 5.625C3.29167 5.04167 3 4.33333 3 3.5C3 2.66667 3.29167 1.95833 3.875 1.375C4.45833 0.791667 5.16667 0.5 6 0.5C6.83333 0.5 7.54167 0.791667 8.125 1.375C8.70833 1.95833 9 2.66667 9 3.5C9 4.33333 8.70833 5.04167 8.125 5.625C7.54167 6.20833 6.83333 6.5 6 6.5ZM0 12.5V10.5C0 10.1806 0.0868056 9.87847 0.260417 9.59375C0.434028 9.30903 0.673611 9.06944 0.979167 8.875C1.74306 8.43056 2.55208 8.09028 3.40625 7.85417C4.26042 7.61806 5.125 7.5 6 7.5C6.875 7.5 7.73958 7.61806 8.59375 7.85417C9.44792 8.09028 10.2569 8.43056 11.0208 8.875C11.3264 9.05556 11.566 9.29167 11.7396 9.58333C11.9132 9.875 12 10.1806 12 10.5V12.5H0Z" fill="#383838"/>
</svg>
