<svg width="24" height="24" viewBox="0 0 24 24" fill="none" xmlns="http://www.w3.org/2000/svg">
<mask id="mask0_6860_5067" style="mask-type:alpha" maskUnits="userSpaceOnUse" x="0" y="0" width="24" height="24">
<rect width="24" height="24" fill="#D9D9D9"/>
</mask>
<g mask="url(#mask0_6860_5067)">
<path d="M14.4 20.0008L13 18.6008L15.6 16.0008L13 13.4008L14.4 12.0008L17 14.6008L19.6 12.0008L21 13.4008L18.4 16.0008L21 18.6008L19.6 20.0008L17 17.4008L14.4 20.0008ZM16.375 11.0008L12.825 7.45078L14.225 6.05078L16.35 8.17578L20.6 3.92578L22 5.35078L16.375 11.0008ZM2 17.0008V15.0008H11V17.0008H2ZM2 9.00078V7.00078H11V9.00078H2Z" fill="#EF6C00"/>
</g>
</svg>
