<svg width="32" height="32" viewBox="0 0 32 32" fill="none" xmlns="http://www.w3.org/2000/svg">
<path d="M27.25 14.75V12.25H24.75V9.75C24.75 8.375 23.625 7.25 22.25 7.25H19.75V4.75H17.25V7.25H14.75V4.75H12.25V7.25H9.75C8.375 7.25 7.25 8.375 7.25 9.75V12.25H4.75V14.75H7.25V17.25H4.75V19.75H7.25V22.25C7.25 23.625 8.375 24.75 9.75 24.75H12.25V27.25H14.75V24.75H17.25V27.25H19.75V24.75H22.25C23.625 24.75 24.75 23.625 24.75 22.25V19.75H27.25V17.25H24.75V14.75H27.25ZM22.25 22.25H9.75V9.75H22.25V22.25ZM19.75 12.25H12.25V19.75H19.75V12.25ZM17.25 17.25H14.75V14.75H17.25V17.25Z" fill="#EF6C00"/>
<path opacity="0.3" d="M9.64587 22.3543H22.3542V9.646H9.64587V22.3543ZM12.1875 12.1877H19.8125V19.8127H12.1875V12.1877Z" fill="#EF6C00"/>
</svg>
