<svg width="30" height="30" viewBox="0 0 30 30" fill="none" xmlns="http://www.w3.org/2000/svg">
<path d="M22 12C21.05 12 20.225 11.7167 19.525 11.15C18.825 10.5833 18.3583 9.86667 18.125 9H11.85C11.6667 9.7 11.3208 10.3042 10.8125 10.8125C10.3042 11.3208 9.7 11.6667 9 11.85V18.125C9.86667 18.3583 10.5833 18.825 11.15 19.525C11.7167 20.225 12 21.05 12 22C12 23.1 11.6083 24.0417 10.825 24.825C10.0417 25.6083 9.1 26 8 26C6.9 26 5.95833 25.6083 5.175 24.825C4.39167 24.0417 4 23.1 4 22C4 21.05 4.28333 20.225 4.85 19.525C5.41667 18.825 6.13333 18.3583 7 18.125V11.85C6.13333 11.6167 5.41667 11.15 4.85 10.45C4.28333 9.75 4 8.93333 4 8C4 6.9 4.39167 5.95833 5.175 5.175C5.95833 4.39167 6.9 4 8 4C8.93333 4 9.75 4.28333 10.45 4.85C11.15 5.41667 11.6167 6.13333 11.85 7H18.125C18.3583 6.13333 18.825 5.41667 19.525 4.85C20.225 4.28333 21.05 4 22 4C23.1 4 24.0417 4.39167 24.825 5.175C25.6083 5.95833 26 6.9 26 8C26 9.1 25.6083 10.0417 24.825 10.825C24.0417 11.6083 23.1 12 22 12ZM8 24C8.55 24 9.02083 23.8 9.4125 23.4C9.80417 23 10 22.5333 10 22C10 21.45 9.80417 20.9792 9.4125 20.5875C9.02083 20.1958 8.55 20 8 20C7.46667 20 7 20.1958 6.6 20.5875C6.2 20.9792 6 21.45 6 22C6 22.5333 6.2 23 6.6 23.4C7 23.8 7.46667 24 8 24ZM8 10C8.55 10 9.02083 9.80417 9.4125 9.4125C9.80417 9.02083 10 8.55 10 8C10 7.45 9.80417 6.97917 9.4125 6.5875C9.02083 6.19583 8.55 6 8 6C7.46667 6 7 6.19583 6.6 6.5875C6.2 6.97917 6 7.45 6 8C6 8.55 6.2 9.02083 6.6 9.4125C7 9.80417 7.46667 10 8 10ZM22 26C20.9 26 19.9583 25.6083 19.175 24.825C18.3917 24.0417 18 23.1 18 22C18 20.9 18.3917 19.9583 19.175 19.175C19.9583 18.3917 20.9 18 22 18C23.1 18 24.0417 18.3917 24.825 19.175C25.6083 19.9583 26 20.9 26 22C26 23.1 25.6083 24.0417 24.825 24.825C24.0417 25.6083 23.1 26 22 26ZM22 24C22.55 24 23.0208 23.8 23.4125 23.4C23.8042 23 24 22.5333 24 22C24 21.45 23.8042 20.9792 23.4125 20.5875C23.0208 20.1958 22.55 20 22 20C21.45 20 20.9792 20.1958 20.5875 20.5875C20.1958 20.9792 20 21.45 20 22C20 22.5333 20.1958 23 20.5875 23.4C20.9792 23.8 21.45 24 22 24ZM22 10C22.55 10 23.0208 9.80417 23.4125 9.4125C23.8042 9.02083 24 8.55 24 8C24 7.45 23.8042 6.97917 23.4125 6.5875C23.0208 6.19583 22.55 6 22 6C21.45 6 20.9792 6.19583 20.5875 6.5875C20.1958 6.97917 20 7.45 20 8C20 8.55 20.1958 9.02083 20.5875 9.4125C20.9792 9.80417 21.45 10 22 10Z" fill="#747474"/>
</svg>
