<svg width="32" height="32" viewBox="0 0 32 32" fill="none" xmlns="http://www.w3.org/2000/svg">
<path d="M4.75 17.25H14.75V4.75H4.75V17.25ZM7.25 7.25H12.25V14.75H7.25V7.25ZM17.25 27.25H27.25V14.75H17.25V27.25ZM19.75 17.25H24.75V24.75H19.75V17.25ZM17.25 4.75V12.25H27.25V4.75H17.25ZM24.75 9.75H19.75V7.25H24.75V9.75ZM4.75 27.25H14.75V19.75H4.75V27.25ZM7.25 22.25H12.25V24.75H7.25V22.25Z" fill="#EF6C00"/>
<path opacity="0.3" d="M7.10413 7.104H12.1875V14.729H7.10413V7.104ZM19.8125 17.2707H24.8958V24.8957H19.8125V17.2707ZM7.10413 22.354H12.1875V24.8957H7.10413V22.354ZM19.8125 7.104H24.8958V9.64567H19.8125V7.104Z" fill="#EF6C00"/>
</svg>
