<svg width="12" height="16" viewBox="0 0 12 16" fill="none" xmlns="http://www.w3.org/2000/svg">
<path id="hourglass_bottom" d="M6 7.25C6.90278 7.25 7.67014 6.93403 8.30208 6.30208C8.93403 5.67014 9.25 4.90278 9.25 4V1.5H2.75V4C2.75 4.90278 3.06597 5.67014 3.69792 6.30208C4.32986 6.93403 5.09722 7.25 6 7.25ZM0 16V14.5H1.25V12C1.25 11.1806 1.44444 10.4201 1.83333 9.71875C2.22222 9.01736 2.76389 8.44444 3.45833 8C2.77778 7.55556 2.23958 6.98264 1.84375 6.28125C1.44792 5.57986 1.25 4.81944 1.25 4V1.5H0V0H12V1.5H10.75V4C10.75 4.81944 10.5521 5.57986 10.1562 6.28125C9.76042 6.98264 9.22222 7.55556 8.54167 8C9.23611 8.44444 9.77778 9.01736 10.1667 9.71875C10.5556 10.4201 10.75 11.1806 10.75 12V14.5H12V16H0Z" fill="#747474"/>
</svg>
