<svg width="30" height="30" viewBox="0 0 30 30" fill="none" xmlns="http://www.w3.org/2000/svg">
<path d="M14 25C12.6167 25 11.3167 24.7375 10.1 24.2125C8.88333 23.6875 7.825 22.975 6.925 22.075C6.025 21.175 5.3125 20.1167 4.7875 18.9C4.2625 17.6833 4 16.3833 4 15C4 13.6167 4.2625 12.3167 4.7875 11.1C5.3125 9.88333 6.025 8.825 6.925 7.925C7.825 7.025 8.88333 6.3125 10.1 5.7875C11.3167 5.2625 12.6167 5 14 5C15.0833 5 16.1083 5.15833 17.075 5.475C18.0417 5.79167 18.9333 6.23333 19.75 6.8L18.3 8.275C17.6667 7.875 16.9917 7.5625 16.275 7.3375C15.5583 7.1125 14.8 7 14 7C11.7833 7 9.89583 7.77917 8.3375 9.3375C6.77917 10.8958 6 12.7833 6 15C6 17.2167 6.77917 19.1042 8.3375 20.6625C9.89583 22.2208 11.7833 23 14 23C14.5333 23 15.05 22.95 15.55 22.85C16.05 22.75 16.5333 22.6083 17 22.425L18.5 23.95C17.8167 24.2833 17.1 24.5417 16.35 24.725C15.6 24.9083 14.8167 25 14 25ZM21 23V20H18V18H21V15H23V18H26V20H23V23H21ZM12.6 19.6L8.35 15.35L9.75 13.95L12.6 16.8L22.6 6.775L24 8.175L12.6 19.6Z" fill="#747474"/>
</svg>
