<svg width="20" height="22" viewBox="0 0 20 22" fill="none" xmlns="http://www.w3.org/2000/svg">
<path id="lock_open_right" d="M2.5 19.5H14.5V9.5H2.5V19.5ZM8.5 16.5C9.05 16.5 9.52083 16.3042 9.9125 15.9125C10.3042 15.5208 10.5 15.05 10.5 14.5C10.5 13.95 10.3042 13.4792 9.9125 13.0875C9.52083 12.6958 9.05 12.5 8.5 12.5C7.95 12.5 7.47917 12.6958 7.0875 13.0875C6.69583 13.4792 6.5 13.95 6.5 14.5C6.5 15.05 6.69583 15.5208 7.0875 15.9125C7.47917 16.3042 7.95 16.5 8.5 16.5ZM2.5 21.5C1.95 21.5 1.47917 21.3042 1.0875 20.9125C0.695833 20.5208 0.5 20.05 0.5 19.5V9.5C0.5 8.95 0.695833 8.47917 1.0875 8.0875C1.47917 7.69583 1.95 7.5 2.5 7.5H9.5V5.5C9.5 4.11667 9.9875 2.9375 10.9625 1.9625C11.9375 0.9875 13.1167 0.5 14.5 0.5C15.8833 0.5 17.0625 0.9875 18.0375 1.9625C19.0125 2.9375 19.5 4.11667 19.5 5.5H17.5C17.5 4.66667 17.2083 3.95833 16.625 3.375C16.0417 2.79167 15.3333 2.5 14.5 2.5C13.6667 2.5 12.9583 2.79167 12.375 3.375C11.7917 3.95833 11.5 4.66667 11.5 5.5V7.5H14.5C15.05 7.5 15.5208 7.69583 15.9125 8.0875C16.3042 8.47917 16.5 8.95 16.5 9.5V19.5C16.5 20.05 16.3042 20.5208 15.9125 20.9125C15.5208 21.3042 15.05 21.5 14.5 21.5H2.5Z" fill="#747474"/>
</svg>
