<svg width="32" height="32" viewBox="0 0 32 32" fill="none" xmlns="http://www.w3.org/2000/svg">
<path d="M23 13C22.05 13 21.225 12.7167 20.525 12.15C19.825 11.5833 19.3583 10.8667 19.125 10H12.85C12.6667 10.7 12.3208 11.3042 11.8125 11.8125C11.3042 12.3208 10.7 12.6667 10 12.85V19.125C10.8667 19.3583 11.5833 19.825 12.15 20.525C12.7167 21.225 13 22.05 13 23C13 24.1 12.6083 25.0417 11.825 25.825C11.0417 26.6083 10.1 27 9 27C7.9 27 6.95833 26.6083 6.175 25.825C5.39167 25.0417 5 24.1 5 23C5 22.05 5.28333 21.225 5.85 20.525C6.41667 19.825 7.13333 19.3583 8 19.125V12.85C7.13333 12.6167 6.41667 12.15 5.85 11.45C5.28333 10.75 5 9.93333 5 9C5 7.9 5.39167 6.95833 6.175 6.175C6.95833 5.39167 7.9 5 9 5C9.93333 5 10.75 5.28333 11.45 5.85C12.15 6.41667 12.6167 7.13333 12.85 8H19.125C19.3583 7.13333 19.825 6.41667 20.525 5.85C21.225 5.28333 22.05 5 23 5C24.1 5 25.0417 5.39167 25.825 6.175C26.6083 6.95833 27 7.9 27 9C27 10.1 26.6083 11.0417 25.825 11.825C25.0417 12.6083 24.1 13 23 13ZM9 25C9.55 25 10.0208 24.8 10.4125 24.4C10.8042 24 11 23.5333 11 23C11 22.45 10.8042 21.9792 10.4125 21.5875C10.0208 21.1958 9.55 21 9 21C8.46667 21 8 21.1958 7.6 21.5875C7.2 21.9792 7 22.45 7 23C7 23.5333 7.2 24 7.6 24.4C8 24.8 8.46667 25 9 25ZM9 11C9.55 11 10.0208 10.8042 10.4125 10.4125C10.8042 10.0208 11 9.55 11 9C11 8.45 10.8042 7.97917 10.4125 7.5875C10.0208 7.19583 9.55 7 9 7C8.46667 7 8 7.19583 7.6 7.5875C7.2 7.97917 7 8.45 7 9C7 9.55 7.2 10.0208 7.6 10.4125C8 10.8042 8.46667 11 9 11ZM23 27C21.9 27 20.9583 26.6083 20.175 25.825C19.3917 25.0417 19 24.1 19 23C19 21.9 19.3917 20.9583 20.175 20.175C20.9583 19.3917 21.9 19 23 19C24.1 19 25.0417 19.3917 25.825 20.175C26.6083 20.9583 27 21.9 27 23C27 24.1 26.6083 25.0417 25.825 25.825C25.0417 26.6083 24.1 27 23 27ZM23 25C23.55 25 24.0208 24.8 24.4125 24.4C24.8042 24 25 23.5333 25 23C25 22.45 24.8042 21.9792 24.4125 21.5875C24.0208 21.1958 23.55 21 23 21C22.45 21 21.9792 21.1958 21.5875 21.5875C21.1958 21.9792 21 22.45 21 23C21 23.5333 21.1958 24 21.5875 24.4C21.9792 24.8 22.45 25 23 25ZM23 11C23.55 11 24.0208 10.8042 24.4125 10.4125C24.8042 10.0208 25 9.55 25 9C25 8.45 24.8042 7.97917 24.4125 7.5875C24.0208 7.19583 23.55 7 23 7C22.45 7 21.9792 7.19583 21.5875 7.5875C21.1958 7.97917 21 8.45 21 9C21 9.55 21.1958 10.0208 21.5875 10.4125C21.9792 10.8042 22.45 11 23 11Z" fill="#747474"/>
</svg>
