<svg width="25" height="25" viewBox="0 0 25 25" fill="none" xmlns="http://www.w3.org/2000/svg">
<mask id="mask0_7119_15319" style="mask-type:alpha" maskUnits="userSpaceOnUse" x="0" y="0" width="25" height="25">
<rect x="0.5" y="0.5" width="24" height="24" fill="#D9D9D9"/>
</mask>
<g mask="url(#mask0_7119_15319)">
<path d="M3.5 21.5V19.5L5.5 17.5V21.5H3.5ZM7.5 21.5V15.5L9.5 13.5V21.5H7.5ZM11.5 21.5V13.5L13.5 15.525V21.5H11.5ZM15.5 21.5V15.525L17.5 13.525V21.5H15.5ZM19.5 21.5V11.5L21.5 9.5V21.5H19.5ZM3.5 16.325V13.5L10.5 6.5L14.5 10.5L21.5 3.5V6.325L14.5 13.325L10.5 9.325L3.5 16.325Z" fill="#EF6C00"/>
</g>
</svg>
