<svg width="29" height="29" viewBox="0 0 29 29" fill="none" xmlns="http://www.w3.org/2000/svg">
<mask id="mask0_7148_15331" style="mask-type:alpha" maskUnits="userSpaceOnUse" x="0" y="0" width="29" height="29">
<rect x="0.5" y="0.5" width="28" height="28" fill="#D9D9D9"/>
</mask>
<g mask="url(#mask0_7148_15331)">
<path d="M15.6666 13.332H23.775C23.4833 11.1931 22.5937 9.37995 21.1062 7.89245C19.6187 6.40495 17.8055 5.51536 15.6666 5.2237V13.332ZM13.3333 23.7737V5.2237C10.9805 5.51536 9.03123 6.54106 7.4854 8.30078C5.93956 10.0605 5.16665 12.1265 5.16665 14.4987C5.16665 16.8709 5.93956 18.9369 7.4854 20.6966C9.03123 22.4563 10.9805 23.482 13.3333 23.7737ZM15.6666 23.7737C17.8055 23.5015 19.6236 22.6168 21.1208 21.1195C22.618 19.6223 23.5028 17.8043 23.775 15.6654H15.6666V23.7737ZM14.5 26.1654C12.8861 26.1654 11.3694 25.8591 9.94998 25.2466C8.53054 24.6341 7.29581 23.8029 6.24581 22.7529C5.19581 21.7029 4.36456 20.4681 3.75206 19.0487C3.13956 17.6293 2.83331 16.1126 2.83331 14.4987C2.83331 12.8848 3.13956 11.3681 3.75206 9.9487C4.36456 8.52925 5.19581 7.29453 6.24581 6.24453C7.29581 5.19453 8.53054 4.36328 9.94998 3.75078C11.3694 3.13828 12.8861 2.83203 14.5 2.83203C16.1139 2.83203 17.6257 3.13828 19.0354 3.75078C20.4451 4.36328 21.6798 5.19939 22.7396 6.25911C23.7993 7.31884 24.6354 8.55356 25.2479 9.96328C25.8604 11.373 26.1666 12.8848 26.1666 14.4987C26.1666 16.0931 25.8604 17.6001 25.2479 19.0195C24.6354 20.439 23.8041 21.6786 22.7541 22.7383C21.7041 23.798 20.4694 24.6341 19.05 25.2466C17.6305 25.8591 16.1139 26.1654 14.5 26.1654Z" fill="#E0E0E0"/>
</g>
</svg>
