<svg width="31" height="30" viewBox="0 0 31 30" fill="none" xmlns="http://www.w3.org/2000/svg">
<path d="M19 11.25H11.5V18.75H19V11.25ZM16.5 16.25H14V13.75H16.5V16.25ZM26.5 13.75V11.25H24V8.75C24 7.375 22.875 6.25 21.5 6.25H19V3.75H16.5V6.25H14V3.75H11.5V6.25H9C7.625 6.25 6.5 7.375 6.5 8.75V11.25H4V13.75H6.5V16.25H4V18.75H6.5V21.25C6.5 22.625 7.625 23.75 9 23.75H11.5V26.25H14V23.75H16.5V26.25H19V23.75H21.5C22.875 23.75 24 22.625 24 21.25V18.75H26.5V16.25H24V13.75H26.5ZM21.5 21.25H9V8.75H21.5V21.25Z" fill="#747474"/>
</svg>
