<svg width="32" height="32" viewBox="0 0 32 32" fill="none" xmlns="http://www.w3.org/2000/svg">
<mask id="mask0_7017_12595" style="mask-type:alpha" maskUnits="userSpaceOnUse" x="0" y="0" width="32" height="32">
<rect width="32" height="32" fill="#D9D9D9"/>
</mask>
<g mask="url(#mask0_7017_12595)">
<path d="M5.33333 24C4.6 24 3.97222 23.7389 3.45 23.2167C2.92778 22.6944 2.66666 22.0667 2.66666 21.3333V10.6667C2.66666 9.93333 2.92778 9.30556 3.45 8.78333C3.97222 8.26111 4.6 8 5.33333 8H26.6667C27.4 8 28.0278 8.26111 28.55 8.78333C29.0722 9.30556 29.3333 9.93333 29.3333 10.6667V21.3333C29.3333 22.0667 29.0722 22.6944 28.55 23.2167C28.0278 23.7389 27.4 24 26.6667 24H5.33333ZM5.33333 21.3333H26.6667V10.6667H5.33333V21.3333ZM9.66666 20H11.6667V17H14.6667V15H11.6667V12H9.66666V15H6.66666V17H9.66666V20Z" fill="#747474"/>
</g>
</svg>
