<svg width="30" height="30" viewBox="0 0 30 30" fill="none" xmlns="http://www.w3.org/2000/svg">
<path d="M19.6937 17.8189H18.7062L18.3562 17.4814C19.6236 16.0114 20.3201 14.1347 20.3187 12.1939C20.3187 10.5869 19.8422 9.01599 18.9494 7.67984C18.0566 6.34369 16.7877 5.30229 15.303 4.68733C13.8184 4.07237 12.1847 3.91147 10.6086 4.22497C9.03252 4.53848 7.58479 5.31231 6.44849 6.44861C5.31218 7.58491 4.53835 9.03265 4.22485 10.6087C3.91134 12.1848 4.07225 13.8185 4.68721 15.3032C5.30217 16.7878 6.34357 18.0568 7.67972 18.9495C9.01587 19.8423 10.5868 20.3189 12.1937 20.3189C14.2062 20.3189 16.0562 19.5814 17.4812 18.3564L17.8187 18.7064V19.6939L24.0687 25.9314L25.9312 24.0689L19.6937 17.8189ZM12.1937 17.8189C9.08123 17.8189 6.56873 15.3064 6.56873 12.1939C6.56873 9.08135 9.08123 6.56885 12.1937 6.56885C15.3062 6.56885 17.8187 9.08135 17.8187 12.1939C17.8187 15.3064 15.3062 17.8189 12.1937 17.8189Z" fill="#EF6C00"/>
</svg>
