<svg width="18" height="18" viewBox="0 0 18 18" fill="none" xmlns="http://www.w3.org/2000/svg">
<path id="select_all" d="M4 14V4H14V14H4ZM6 12H12V6H6V12ZM2 16V18C1.45 18 0.979167 17.8042 0.5875 17.4125C0.195833 17.0208 0 16.55 0 16H2ZM0 14V12H2V14H0ZM0 10V8H2V10H0ZM0 6V4H2V6H0ZM2 2H0C0 1.45 0.195833 0.979167 0.5875 0.5875C0.979167 0.195833 1.45 0 2 0V2ZM4 18V16H6V18H4ZM4 2V0H6V2H4ZM8 18V16H10V18H8ZM8 2V0H10V2H8ZM12 18V16H14V18H12ZM12 2V0H14V2H12ZM16 18V16H18C18 16.55 17.8042 17.0208 17.4125 17.4125C17.0208 17.8042 16.55 18 16 18ZM16 14V12H18V14H16ZM16 10V8H18V10H16ZM16 6V4H18V6H16ZM16 2V0C16.55 0 17.0208 0.195833 17.4125 0.5875C17.8042 0.979167 18 1.45 18 2H16Z" fill="#747474"/>
</svg>
