<svg width="30" height="30" viewBox="0 0 30 30" fill="none" xmlns="http://www.w3.org/2000/svg">
<path d="M12.25 25L11.85 21.8C11.6333 21.7167 11.4291 21.6167 11.2375 21.5C11.0458 21.3833 10.8583 21.2583 10.675 21.125L7.69995 22.375L4.94995 17.625L7.52495 15.675C7.50828 15.5583 7.49995 15.4458 7.49995 15.3375V14.6625C7.49995 14.5542 7.50828 14.4417 7.52495 14.325L4.94995 12.375L7.69995 7.625L10.675 8.875C10.8583 8.74167 11.05 8.61667 11.25 8.5C11.45 8.38333 11.65 8.28333 11.85 8.2L12.25 5H17.75L18.15 8.2C18.3666 8.28333 18.5708 8.38333 18.7625 8.5C18.9541 8.61667 19.1416 8.74167 19.325 8.875L22.3 7.625L25.05 12.375L22.475 14.325C22.4916 14.4417 22.5 14.5542 22.5 14.6625V15.3375C22.5 15.4458 22.4833 15.5583 22.45 15.675L25.025 17.625L22.275 22.375L19.325 21.125C19.1416 21.2583 18.95 21.3833 18.75 21.5C18.55 21.6167 18.35 21.7167 18.15 21.8L17.75 25H12.25ZM14 23H15.975L16.325 20.35C16.8416 20.2167 17.3208 20.0208 17.7625 19.7625C18.2041 19.5042 18.6083 19.1917 18.975 18.825L21.45 19.85L22.425 18.15L20.275 16.525C20.3583 16.2917 20.4166 16.0458 20.45 15.7875C20.4833 15.5292 20.5 15.2667 20.5 15C20.5 14.7333 20.4833 14.4708 20.45 14.2125C20.4166 13.9542 20.3583 13.7083 20.275 13.475L22.425 11.85L21.45 10.15L18.975 11.2C18.6083 10.8167 18.2041 10.4958 17.7625 10.2375C17.3208 9.97917 16.8416 9.78333 16.325 9.65L16 7H14.025L13.675 9.65C13.1583 9.78333 12.6791 9.97917 12.2375 10.2375C11.7958 10.4958 11.3916 10.8083 11.025 11.175L8.54995 10.15L7.57495 11.85L9.72495 13.45C9.64162 13.7 9.58328 13.95 9.54995 14.2C9.51662 14.45 9.49995 14.7167 9.49995 15C9.49995 15.2667 9.51662 15.525 9.54995 15.775C9.58328 16.025 9.64162 16.275 9.72495 16.525L7.57495 18.15L8.54995 19.85L11.025 18.8C11.3916 19.1833 11.7958 19.5042 12.2375 19.7625C12.6791 20.0208 13.1583 20.2167 13.675 20.35L14 23ZM15.05 18.5C16.0166 18.5 16.8416 18.1583 17.525 17.475C18.2083 16.7917 18.55 15.9667 18.55 15C18.55 14.0333 18.2083 13.2083 17.525 12.525C16.8416 11.8417 16.0166 11.5 15.05 11.5C14.0666 11.5 13.2375 11.8417 12.5625 12.525C11.8875 13.2083 11.55 14.0333 11.55 15C11.55 15.9667 11.8875 16.7917 12.5625 17.475C13.2375 18.1583 14.0666 18.5 15.05 18.5Z" fill="#747474"/>
</svg>
