<svg width="32" height="32" viewBox="0 0 32 32" fill="none" xmlns="http://www.w3.org/2000/svg">
<mask id="path-1-outside-1_7014_26634" maskUnits="userSpaceOnUse" x="1.66666" y="0.244141" width="27" height="32" fill="black">
<rect fill="white" x="1.66666" y="0.244141" width="27" height="32"/>
<path d="M23.6078 1.42208C22.971 1.59153 22.7606 1.76097 21.0603 3.44372L19.6306 4.85309C19.5132 4.96882 19.3244 4.96814 19.2079 4.85158L18.8809 4.52465L18.5555 4.19924C18.4384 4.08208 18.2484 4.08208 18.1313 4.19924L15.8134 6.51707L13.5014 8.82907C13.3843 8.94622 13.1943 8.94622 13.0772 8.82907L12.8803 8.6322L12.6834 8.43533C12.5663 8.31817 12.3763 8.31817 12.2592 8.43533L9.42132 11.2732L6.40635 14.2882C6.37936 14.3151 6.35777 14.347 6.34274 14.3821L5.59424 16.1286L4.90298 17.7415C4.85466 17.8543 4.87985 17.9851 4.9666 18.0718L5.24366 18.3489L5.45222 18.5575C5.56938 18.6746 5.56938 18.8646 5.45222 18.9817L4.49577 19.9382L3.53933 20.8946C3.42217 21.0118 3.42217 21.2017 3.53933 21.3189L3.96991 21.7495L4.39899 22.1785C4.51674 22.2963 4.51606 22.4874 4.39748 22.6043L4.19779 22.8012C3.72451 23.2686 3.23371 23.9756 3.01168 24.5131C2.74291 25.15 2.66111 25.5999 2.66695 26.4238C2.66695 27.0723 2.69032 27.2593 2.82471 27.6975C3.25124 29.1232 4.18026 30.1983 5.51243 30.8059C6.19021 31.1156 6.64595 31.2091 7.50486 31.2091C8.58579 31.2091 9.35121 30.9812 10.2627 30.3911C10.4789 30.2509 12.6583 28.1182 16.3568 24.4372C19.5237 21.282 22.2055 18.641 22.3224 18.5768C23.7305 17.7354 25.6645 18.3138 26.3715 19.7921C26.7805 20.6452 26.7805 21.5099 26.3715 22.363C26.167 22.7837 26.0034 22.9589 22.5561 26.4121L19.1687 29.805C19.0517 29.9222 19.0518 30.112 19.1689 30.2291L19.5704 30.6306L19.9719 31.0322C20.089 31.1493 20.2789 31.1494 20.396 31.0324L23.7364 27.6975C25.6937 25.7401 27.4057 23.9873 27.5459 23.7945C28.6502 22.2519 28.732 20.3296 27.7621 18.6527C27.6511 18.4599 27.3181 18.0626 27.0259 17.7763C26.2313 16.9817 25.4191 16.596 24.2856 16.4558C23.3449 16.3448 22.2873 16.5727 21.4109 17.081C20.9844 17.3264 20.4118 17.8815 15.1298 23.1518C9.42132 28.8427 9.31031 28.9537 8.86625 29.1641C7.64509 29.7484 6.25448 29.5146 5.30793 28.5623C4.84635 28.0948 4.58926 27.604 4.45487 26.9263C4.25622 25.9096 4.56589 24.963 5.39558 24.0866L5.6171 23.8471C5.73236 23.7225 5.92794 23.7183 6.0485 23.8377L6.47651 24.2619L6.91294 24.6944C7.03025 24.8107 7.21946 24.8102 7.33624 24.6934L8.29365 23.736L9.25009 22.7796C9.36725 22.6624 9.5572 22.6624 9.67435 22.7796L9.88875 22.994L10.1659 23.2711C10.2526 23.3578 10.3833 23.383 10.4961 23.3348L12.0974 22.6493L13.826 21.9125C13.8613 21.8974 13.8934 21.8757 13.9205 21.8486L16.9469 18.8222L19.7965 15.9726C19.9136 15.8555 19.9136 15.6655 19.7965 15.5484L19.5996 15.3515L19.4027 15.1546C19.2856 15.0375 19.2856 14.8475 19.4027 14.7304L21.6914 12.4418C23.0644 11.0687 24.1863 9.92347 24.1863 9.88841C24.1863 9.8592 23.9584 9.60211 23.6779 9.32166L23.3786 9.01885C23.2629 8.9018 23.2631 8.71336 23.379 8.59656L24.8056 7.15979C26.6169 5.33681 26.7513 5.15568 26.874 4.34937C27.1603 2.50886 25.4074 0.937122 23.6078 1.42208ZM24.6187 3.16326C24.9283 3.2918 25.1445 3.61901 25.1387 3.95205C25.1387 4.10981 25.1036 4.29678 25.0627 4.37274C25.0218 4.44869 24.3031 5.20243 23.4618 6.04964L22.1538 7.36771C22.0371 7.48524 21.8473 7.48605 21.7297 7.36951L21.3116 6.95529L20.8923 6.53599C20.7753 6.41899 20.7751 6.22935 20.8919 6.11213L22.2114 4.78758C23.0586 3.94036 23.8299 3.21 23.9233 3.16326C24.1512 3.06393 24.3732 3.06393 24.6187 3.16326ZM20.0554 8.21151L21.5201 9.67628C21.6373 9.79344 21.6373 9.98339 21.5201 10.1005L21.1012 10.5194L20.6882 10.9325C20.571 11.0497 20.3811 11.0497 20.2639 10.9325L18.7816 9.4502L17.2993 7.9679C17.1822 7.85074 17.1822 7.66079 17.2993 7.54363L17.7007 7.14226C18.0396 6.80337 18.3259 6.52876 18.3434 6.52876C18.3609 6.52876 19.1263 7.28249 20.0554 8.21151ZM18.5888 13.026L18.1465 13.4723C18.0295 13.5903 17.8388 13.5907 17.7213 13.4732L16.24 11.9919L14.7577 10.5095C14.6405 10.3924 14.6405 10.2024 14.7577 10.0853L15.1999 9.64301L15.648 9.1949C15.7652 9.07774 15.9551 9.07774 16.0723 9.1949L17.5546 10.6772L19.036 12.1586C19.1535 12.2761 19.1531 12.4668 19.035 12.5838L18.5888 13.026ZM15.0422 13.2481L17.3422 15.5481C17.4595 15.6654 17.4594 15.8555 17.3419 15.9726L15.2291 18.0801L12.9445 20.3647C12.9175 20.3917 12.8857 20.4133 12.8506 20.4284L11.8403 20.8613C11.256 21.1067 10.7477 21.3112 10.7184 21.3112C10.6834 21.3112 9.81279 20.464 8.7786 19.424L7.04072 17.6861C6.95403 17.5994 6.92881 17.4687 6.97704 17.356L7.38216 16.4091L7.84437 15.3343C7.8594 15.2993 7.88093 15.2676 7.90783 15.2407L10.14 13.0085C11.3904 11.7581 12.4362 10.7356 12.4713 10.7356C12.5064 10.7356 13.6633 11.8633 15.0422 13.2481ZM7.68014 21.8955L7.3372 22.2385C7.22004 22.3556 7.0301 22.3556 6.91294 22.2385L6.47067 21.7962L6.02255 21.3481C5.9054 21.2309 5.9054 21.041 6.02255 20.9238L6.3655 20.5809L6.70844 20.2379C6.82559 20.1208 7.01554 20.1208 7.1327 20.2379L7.57497 20.6802L8.02308 21.1283C8.14024 21.2455 8.14024 21.4354 8.02308 21.5526L7.68014 21.8955Z"/>
</mask>
<path d="M23.6078 1.42208C22.971 1.59153 22.7606 1.76097 21.0603 3.44372L19.6306 4.85309C19.5132 4.96882 19.3244 4.96814 19.2079 4.85158L18.8809 4.52465L18.5555 4.19924C18.4384 4.08208 18.2484 4.08208 18.1313 4.19924L15.8134 6.51707L13.5014 8.82907C13.3843 8.94622 13.1943 8.94622 13.0772 8.82907L12.8803 8.6322L12.6834 8.43533C12.5663 8.31817 12.3763 8.31817 12.2592 8.43533L9.42132 11.2732L6.40635 14.2882C6.37936 14.3151 6.35777 14.347 6.34274 14.3821L5.59424 16.1286L4.90298 17.7415C4.85466 17.8543 4.87985 17.9851 4.9666 18.0718L5.24366 18.3489L5.45222 18.5575C5.56938 18.6746 5.56938 18.8646 5.45222 18.9817L4.49577 19.9382L3.53933 20.8946C3.42217 21.0118 3.42217 21.2017 3.53933 21.3189L3.96991 21.7495L4.39899 22.1785C4.51674 22.2963 4.51606 22.4874 4.39748 22.6043L4.19779 22.8012C3.72451 23.2686 3.23371 23.9756 3.01168 24.5131C2.74291 25.15 2.66111 25.5999 2.66695 26.4238C2.66695 27.0723 2.69032 27.2593 2.82471 27.6975C3.25124 29.1232 4.18026 30.1983 5.51243 30.8059C6.19021 31.1156 6.64595 31.2091 7.50486 31.2091C8.58579 31.2091 9.35121 30.9812 10.2627 30.3911C10.4789 30.2509 12.6583 28.1182 16.3568 24.4372C19.5237 21.282 22.2055 18.641 22.3224 18.5768C23.7305 17.7354 25.6645 18.3138 26.3715 19.7921C26.7805 20.6452 26.7805 21.5099 26.3715 22.363C26.167 22.7837 26.0034 22.9589 22.5561 26.4121L19.1687 29.805C19.0517 29.9222 19.0518 30.112 19.1689 30.2291L19.5704 30.6306L19.9719 31.0322C20.089 31.1493 20.2789 31.1494 20.396 31.0324L23.7364 27.6975C25.6937 25.7401 27.4057 23.9873 27.5459 23.7945C28.6502 22.2519 28.732 20.3296 27.7621 18.6527C27.6511 18.4599 27.3181 18.0626 27.0259 17.7763C26.2313 16.9817 25.4191 16.596 24.2856 16.4558C23.3449 16.3448 22.2873 16.5727 21.4109 17.081C20.9844 17.3264 20.4118 17.8815 15.1298 23.1518C9.42132 28.8427 9.31031 28.9537 8.86625 29.1641C7.64509 29.7484 6.25448 29.5146 5.30793 28.5623C4.84635 28.0948 4.58926 27.604 4.45487 26.9263C4.25622 25.9096 4.56589 24.963 5.39558 24.0866L5.6171 23.8471C5.73236 23.7225 5.92794 23.7183 6.0485 23.8377L6.47651 24.2619L6.91294 24.6944C7.03025 24.8107 7.21946 24.8102 7.33624 24.6934L8.29365 23.736L9.25009 22.7796C9.36725 22.6624 9.5572 22.6624 9.67435 22.7796L9.88875 22.994L10.1659 23.2711C10.2526 23.3578 10.3833 23.383 10.4961 23.3348L12.0974 22.6493L13.826 21.9125C13.8613 21.8974 13.8934 21.8757 13.9205 21.8486L16.9469 18.8222L19.7965 15.9726C19.9136 15.8555 19.9136 15.6655 19.7965 15.5484L19.5996 15.3515L19.4027 15.1546C19.2856 15.0375 19.2856 14.8475 19.4027 14.7304L21.6914 12.4418C23.0644 11.0687 24.1863 9.92347 24.1863 9.88841C24.1863 9.8592 23.9584 9.60211 23.6779 9.32166L23.3786 9.01885C23.2629 8.9018 23.2631 8.71336 23.379 8.59656L24.8056 7.15979C26.6169 5.33681 26.7513 5.15568 26.874 4.34937C27.1603 2.50886 25.4074 0.937122 23.6078 1.42208ZM24.6187 3.16326C24.9283 3.2918 25.1445 3.61901 25.1387 3.95205C25.1387 4.10981 25.1036 4.29678 25.0627 4.37274C25.0218 4.44869 24.3031 5.20243 23.4618 6.04964L22.1538 7.36771C22.0371 7.48524 21.8473 7.48605 21.7297 7.36951L21.3116 6.95529L20.8923 6.53599C20.7753 6.41899 20.7751 6.22935 20.8919 6.11213L22.2114 4.78758C23.0586 3.94036 23.8299 3.21 23.9233 3.16326C24.1512 3.06393 24.3732 3.06393 24.6187 3.16326ZM20.0554 8.21151L21.5201 9.67628C21.6373 9.79344 21.6373 9.98339 21.5201 10.1005L21.1012 10.5194L20.6882 10.9325C20.571 11.0497 20.3811 11.0497 20.2639 10.9325L18.7816 9.4502L17.2993 7.9679C17.1822 7.85074 17.1822 7.66079 17.2993 7.54363L17.7007 7.14226C18.0396 6.80337 18.3259 6.52876 18.3434 6.52876C18.3609 6.52876 19.1263 7.28249 20.0554 8.21151ZM18.5888 13.026L18.1465 13.4723C18.0295 13.5903 17.8388 13.5907 17.7213 13.4732L16.24 11.9919L14.7577 10.5095C14.6405 10.3924 14.6405 10.2024 14.7577 10.0853L15.1999 9.64301L15.648 9.1949C15.7652 9.07774 15.9551 9.07774 16.0723 9.1949L17.5546 10.6772L19.036 12.1586C19.1535 12.2761 19.1531 12.4668 19.035 12.5838L18.5888 13.026ZM15.0422 13.2481L17.3422 15.5481C17.4595 15.6654 17.4594 15.8555 17.3419 15.9726L15.2291 18.0801L12.9445 20.3647C12.9175 20.3917 12.8857 20.4133 12.8506 20.4284L11.8403 20.8613C11.256 21.1067 10.7477 21.3112 10.7184 21.3112C10.6834 21.3112 9.81279 20.464 8.7786 19.424L7.04072 17.6861C6.95403 17.5994 6.92881 17.4687 6.97704 17.356L7.38216 16.4091L7.84437 15.3343C7.8594 15.2993 7.88093 15.2676 7.90783 15.2407L10.14 13.0085C11.3904 11.7581 12.4362 10.7356 12.4713 10.7356C12.5064 10.7356 13.6633 11.8633 15.0422 13.2481ZM7.68014 21.8955L7.3372 22.2385C7.22004 22.3556 7.0301 22.3556 6.91294 22.2385L6.47067 21.7962L6.02255 21.3481C5.9054 21.2309 5.9054 21.041 6.02255 20.9238L6.3655 20.5809L6.70844 20.2379C6.82559 20.1208 7.01554 20.1208 7.1327 20.2379L7.57497 20.6802L8.02308 21.1283C8.14024 21.2455 8.14024 21.4354 8.02308 21.5526L7.68014 21.8955Z" fill="#747474"/>
<path d="M23.6078 1.42208C22.971 1.59153 22.7606 1.76097 21.0603 3.44372L19.6306 4.85309C19.5132 4.96882 19.3244 4.96814 19.2079 4.85158L18.8809 4.52465L18.5555 4.19924C18.4384 4.08208 18.2484 4.08208 18.1313 4.19924L15.8134 6.51707L13.5014 8.82907C13.3843 8.94622 13.1943 8.94622 13.0772 8.82907L12.8803 8.6322L12.6834 8.43533C12.5663 8.31817 12.3763 8.31817 12.2592 8.43533L9.42132 11.2732L6.40635 14.2882C6.37936 14.3151 6.35777 14.347 6.34274 14.3821L5.59424 16.1286L4.90298 17.7415C4.85466 17.8543 4.87985 17.9851 4.9666 18.0718L5.24366 18.3489L5.45222 18.5575C5.56938 18.6746 5.56938 18.8646 5.45222 18.9817L4.49577 19.9382L3.53933 20.8946C3.42217 21.0118 3.42217 21.2017 3.53933 21.3189L3.96991 21.7495L4.39899 22.1785C4.51674 22.2963 4.51606 22.4874 4.39748 22.6043L4.19779 22.8012C3.72451 23.2686 3.23371 23.9756 3.01168 24.5131C2.74291 25.15 2.66111 25.5999 2.66695 26.4238C2.66695 27.0723 2.69032 27.2593 2.82471 27.6975C3.25124 29.1232 4.18026 30.1983 5.51243 30.8059C6.19021 31.1156 6.64595 31.2091 7.50486 31.2091C8.58579 31.2091 9.35121 30.9812 10.2627 30.3911C10.4789 30.2509 12.6583 28.1182 16.3568 24.4372C19.5237 21.282 22.2055 18.641 22.3224 18.5768C23.7305 17.7354 25.6645 18.3138 26.3715 19.7921C26.7805 20.6452 26.7805 21.5099 26.3715 22.363C26.167 22.7837 26.0034 22.9589 22.5561 26.4121L19.1687 29.805C19.0517 29.9222 19.0518 30.112 19.1689 30.2291L19.5704 30.6306L19.9719 31.0322C20.089 31.1493 20.2789 31.1494 20.396 31.0324L23.7364 27.6975C25.6937 25.7401 27.4057 23.9873 27.5459 23.7945C28.6502 22.2519 28.732 20.3296 27.7621 18.6527C27.6511 18.4599 27.3181 18.0626 27.0259 17.7763C26.2313 16.9817 25.4191 16.596 24.2856 16.4558C23.3449 16.3448 22.2873 16.5727 21.4109 17.081C20.9844 17.3264 20.4118 17.8815 15.1298 23.1518C9.42132 28.8427 9.31031 28.9537 8.86625 29.1641C7.64509 29.7484 6.25448 29.5146 5.30793 28.5623C4.84635 28.0948 4.58926 27.604 4.45487 26.9263C4.25622 25.9096 4.56589 24.963 5.39558 24.0866L5.6171 23.8471C5.73236 23.7225 5.92794 23.7183 6.0485 23.8377L6.47651 24.2619L6.91294 24.6944C7.03025 24.8107 7.21946 24.8102 7.33624 24.6934L8.29365 23.736L9.25009 22.7796C9.36725 22.6624 9.5572 22.6624 9.67435 22.7796L9.88875 22.994L10.1659 23.2711C10.2526 23.3578 10.3833 23.383 10.4961 23.3348L12.0974 22.6493L13.826 21.9125C13.8613 21.8974 13.8934 21.8757 13.9205 21.8486L16.9469 18.8222L19.7965 15.9726C19.9136 15.8555 19.9136 15.6655 19.7965 15.5484L19.5996 15.3515L19.4027 15.1546C19.2856 15.0375 19.2856 14.8475 19.4027 14.7304L21.6914 12.4418C23.0644 11.0687 24.1863 9.92347 24.1863 9.88841C24.1863 9.8592 23.9584 9.60211 23.6779 9.32166L23.3786 9.01885C23.2629 8.9018 23.2631 8.71336 23.379 8.59656L24.8056 7.15979C26.6169 5.33681 26.7513 5.15568 26.874 4.34937C27.1603 2.50886 25.4074 0.937122 23.6078 1.42208ZM24.6187 3.16326C24.9283 3.2918 25.1445 3.61901 25.1387 3.95205C25.1387 4.10981 25.1036 4.29678 25.0627 4.37274C25.0218 4.44869 24.3031 5.20243 23.4618 6.04964L22.1538 7.36771C22.0371 7.48524 21.8473 7.48605 21.7297 7.36951L21.3116 6.95529L20.8923 6.53599C20.7753 6.41899 20.7751 6.22935 20.8919 6.11213L22.2114 4.78758C23.0586 3.94036 23.8299 3.21 23.9233 3.16326C24.1512 3.06393 24.3732 3.06393 24.6187 3.16326ZM20.0554 8.21151L21.5201 9.67628C21.6373 9.79344 21.6373 9.98339 21.5201 10.1005L21.1012 10.5194L20.6882 10.9325C20.571 11.0497 20.3811 11.0497 20.2639 10.9325L18.7816 9.4502L17.2993 7.9679C17.1822 7.85074 17.1822 7.66079 17.2993 7.54363L17.7007 7.14226C18.0396 6.80337 18.3259 6.52876 18.3434 6.52876C18.3609 6.52876 19.1263 7.28249 20.0554 8.21151ZM18.5888 13.026L18.1465 13.4723C18.0295 13.5903 17.8388 13.5907 17.7213 13.4732L16.24 11.9919L14.7577 10.5095C14.6405 10.3924 14.6405 10.2024 14.7577 10.0853L15.1999 9.64301L15.648 9.1949C15.7652 9.07774 15.9551 9.07774 16.0723 9.1949L17.5546 10.6772L19.036 12.1586C19.1535 12.2761 19.1531 12.4668 19.035 12.5838L18.5888 13.026ZM15.0422 13.2481L17.3422 15.5481C17.4595 15.6654 17.4594 15.8555 17.3419 15.9726L15.2291 18.0801L12.9445 20.3647C12.9175 20.3917 12.8857 20.4133 12.8506 20.4284L11.8403 20.8613C11.256 21.1067 10.7477 21.3112 10.7184 21.3112C10.6834 21.3112 9.81279 20.464 8.7786 19.424L7.04072 17.6861C6.95403 17.5994 6.92881 17.4687 6.97704 17.356L7.38216 16.4091L7.84437 15.3343C7.8594 15.2993 7.88093 15.2676 7.90783 15.2407L10.14 13.0085C11.3904 11.7581 12.4362 10.7356 12.4713 10.7356C12.5064 10.7356 13.6633 11.8633 15.0422 13.2481ZM7.68014 21.8955L7.3372 22.2385C7.22004 22.3556 7.0301 22.3556 6.91294 22.2385L6.47067 21.7962L6.02255 21.3481C5.9054 21.2309 5.9054 21.041 6.02255 20.9238L6.3655 20.5809L6.70844 20.2379C6.82559 20.1208 7.01554 20.1208 7.1327 20.2379L7.57497 20.6802L8.02308 21.1283C8.14024 21.2455 8.14024 21.4354 8.02308 21.5526L7.68014 21.8955Z" stroke="#747474" stroke-width="0.4" mask="url(#path-1-outside-1_7014_26634)"/>
</svg>
