<svg width="32" height="32" viewBox="0 0 32 32" fill="none" xmlns="http://www.w3.org/2000/svg">
<mask id="mask0_7014_26627" style="mask-type:alpha" maskUnits="userSpaceOnUse" x="0" y="0" width="32" height="32">
<rect width="32" height="32" fill="#D9D9D9"/>
</mask>
<g mask="url(#mask0_7014_26627)">
<path d="M8 19.9993H10.6667V11.9993H8V19.9993ZM14.6667 19.9993H17.3333V11.9993H14.6667V19.9993ZM21.3333 19.9993H24V11.9993H21.3333V19.9993ZM5.33333 22.666H26.6667V9.33268H5.33333V22.666ZM6.66666 29.3327V25.3327H5.33333C4.6 25.3327 3.97222 25.0716 3.45 24.5494C2.92778 24.0271 2.66666 23.3993 2.66666 22.666V9.33268C2.66666 8.59935 2.92778 7.97157 3.45 7.44935C3.97222 6.92713 4.6 6.66602 5.33333 6.66602H6.66666H9.33333H14.6667H17.3333H22.6667H25.3333H26.6667C27.4 6.66602 28.0278 6.92713 28.55 7.44935C29.0722 7.97157 29.3333 8.59935 29.3333 9.33268V22.666C29.3333 23.3993 29.0722 24.0271 28.55 24.5494C28.0278 25.0716 27.4 25.3327 26.6667 25.3327H25.3333V29.3327H22.6667V25.3327H17.3333V29.3327H14.6667V25.3327H9.33333V29.3327H6.66666Z" fill="#747474"/>
</g>
</svg>
