<svg width="26" height="28" viewBox="0 0 26 28" fill="none" xmlns="http://www.w3.org/2000/svg">
<path d="M6.15 21.85C5.46667 21.05 4.9375 20.1542 4.5625 19.1625C4.1875 18.1708 4 17.1167 4 16C4 13.5 4.875 11.375 6.625 9.625C8.375 7.875 10.5 7 13 7H13.2L11.6 5.4L13 4L17 8L13 12L11.575 10.575L13.15 9H13C11.0667 9 9.41667 9.68333 8.05 11.05C6.68333 12.4167 6 14.0667 6 16C6 16.85 6.1375 17.65 6.4125 18.4C6.6875 19.15 7.075 19.825 7.575 20.425L6.15 21.85ZM12 21.5C12 21.1167 11.8708 20.7375 11.6125 20.3625C11.3542 19.9875 11.0667 19.5958 10.75 19.1875C10.4333 18.7792 10.1458 18.3542 9.8875 17.9125C9.62917 17.4708 9.5 17 9.5 16.5C9.5 15.5333 9.84167 14.7083 10.525 14.025C11.2083 13.3417 12.0333 13 13 13C13.9667 13 14.7917 13.3417 15.475 14.025C16.1583 14.7083 16.5 15.5333 16.5 16.5C16.5 17 16.3708 17.4708 16.1125 17.9125C15.8542 18.3542 15.5667 18.7792 15.25 19.1875C14.9333 19.5958 14.6458 19.9875 14.3875 20.3625C14.1292 20.7375 14 21.1167 14 21.5H12ZM12 24V22.5H14V24H12ZM19.85 21.85L18.425 20.425C18.925 19.825 19.3125 19.15 19.5875 18.4C19.8625 17.65 20 16.85 20 16C20 14.9 19.7708 13.8792 19.3125 12.9375C18.8542 11.9958 18.225 11.2083 17.425 10.575L18.85 9.15C19.8167 9.98333 20.5833 10.9875 21.15 12.1625C21.7167 13.3375 22 14.6167 22 16C22 17.1167 21.8125 18.1708 21.4375 19.1625C21.0625 20.1542 20.5333 21.05 19.85 21.85Z" fill="#747474"/>
</svg>
