<svg width="20" height="20" viewBox="0 0 20 20" fill="none" xmlns="http://www.w3.org/2000/svg">
<mask id="mask0_8265_30109" style="mask-type:alpha" maskUnits="userSpaceOnUse" x="0" y="0" width="20" height="20">
<rect width="20" height="20" fill="#D9D9D9"/>
</mask>
<g mask="url(#mask0_8265_30109)">
<path d="M5.00008 11.6667H11.6667V10.0001H5.00008V11.6667ZM5.00008 9.16675H15.0001V7.50008H5.00008V9.16675ZM5.00008 6.66675H15.0001V5.00008H5.00008V6.66675ZM10.0001 18.3334L7.77092 15.0001H3.33341C2.87508 15.0001 2.48272 14.8369 2.15633 14.5105C1.82994 14.1841 1.66675 13.7917 1.66675 13.3334V3.33341C1.66675 2.87508 1.82994 2.48272 2.15633 2.15633C2.48272 1.82994 2.87508 1.66675 3.33341 1.66675H16.6667C17.1251 1.66675 17.5174 1.82994 17.8438 2.15633C18.1702 2.48272 18.3334 2.87508 18.3334 3.33341V13.3334C18.3334 13.7917 18.1702 14.1841 17.8438 14.5105C17.5174 14.8369 17.1251 15.0001 16.6667 15.0001H12.2292L10.0001 18.3334ZM10.0001 15.3334L11.3334 13.3334H16.6667V3.33341H3.33341V13.3334H8.66675L10.0001 15.3334Z" fill="#EF6C00"/>
</g>
</svg>
