<svg width="30" height="30" viewBox="0 0 30 30" fill="none" xmlns="http://www.w3.org/2000/svg">
<path d="M15.6375 12.4875C15.6375 10.425 13.95 8.7375 11.8875 8.7375C9.825 8.7375 8.1375 10.425 8.1375 12.4875C8.1375 14.55 9.825 16.2375 11.8875 16.2375C13.95 16.2375 15.6375 14.55 15.6375 12.4875ZM11.8875 13.7375C11.2 13.7375 10.6375 13.175 10.6375 12.4875C10.6375 11.8 11.2 11.2375 11.8875 11.2375C12.575 11.2375 13.1375 11.8 13.1375 12.4875C13.1375 13.175 12.575 13.7375 11.8875 13.7375ZM20.0125 16.2375C21.4 16.2375 22.5125 15.125 22.5125 13.7375C22.5125 12.35 21.4 11.2375 20.0125 11.2375C18.625 11.2375 17.5 12.35 17.5125 13.7375C17.5125 15.125 18.625 16.2375 20.0125 16.2375ZM15 2.5C8.1 2.5 2.5 8.1 2.5 15C2.5 21.9 8.1 27.5 15 27.5C21.9 27.5 27.5 21.9 27.5 15C27.5 8.1 21.9 2.5 15 2.5ZM7.3125 21.3875C8.1625 20.7125 10.15 20 11.8875 20C11.975 20 12.075 20.0125 12.175 20.0125C12.475 19.2125 13.0125 18.4 13.8 17.6875C13.1693 17.5667 12.5295 17.4998 11.8875 17.4875C10.2625 17.4875 7.65 18.05 5.975 19.275C5.35 17.975 5 16.525 5 14.9875C5 9.475 9.4875 4.9875 15 4.9875C20.5125 4.9875 25 9.475 25 14.9875C25 16.4875 24.6625 17.9125 24.0625 19.2C22.8125 18.4625 21.1125 18.1125 20.0125 18.1125C18.1125 18.1125 14.3875 19.125 14.3875 21.4875V24.9625C13.0258 24.8851 11.6947 24.5276 10.4773 23.9125C9.26001 23.2974 8.18262 22.4378 7.3125 21.3875Z" fill="#747474"/>
<path opacity="0.3" d="M11.9788 13.7917C12.6462 13.7917 13.1872 13.2507 13.1872 12.5833C13.1872 11.916 12.6462 11.375 11.9788 11.375C11.3115 11.375 10.7705 11.916 10.7705 12.5833C10.7705 13.2507 11.3115 13.7917 11.9788 13.7917Z" fill="#747474"/>
<path opacity="0.3" d="M14.3959 21.2955C14.3959 19.0238 17.9967 18.033 19.8334 18.033C20.8967 18.033 22.54 18.3592 23.7484 19.0842C24.3284 17.8517 24.6546 16.4742 24.6546 15.0121C24.6546 9.68338 20.3167 5.34546 14.988 5.34546C9.65921 5.34546 5.32129 9.68338 5.32129 15.0121C5.32129 16.4984 5.67171 17.9 6.26379 19.1567C7.88296 17.9725 10.4084 17.4288 11.9792 17.4288C12.5109 17.4288 13.1513 17.4892 13.828 17.6221C13.0667 18.3109 12.5471 19.0963 12.2571 19.8696C12.1605 19.8696 12.0759 19.8575 11.9792 19.8575C10.3117 19.8575 8.37837 20.5463 7.55671 21.1988C8.39782 22.2141 9.4393 23.045 10.6161 23.6396C11.7928 24.2342 13.0795 24.5798 14.3959 24.6546V21.2955ZM19.8334 11.375C21.1746 11.375 22.25 12.4505 22.25 13.7917C22.25 15.133 21.1746 16.2084 19.8334 16.2084C18.4921 16.2084 17.4167 15.133 17.4167 13.7917C17.4046 12.4505 18.4921 11.375 19.8334 11.375ZM11.9792 16.2084C9.98546 16.2084 8.35421 14.5771 8.35421 12.5834C8.35421 10.5896 9.98546 8.95838 11.9792 8.95838C13.973 8.95838 15.6042 10.5896 15.6042 12.5834C15.6042 14.5771 13.973 16.2084 11.9792 16.2084Z" fill="#747474"/>
</svg>
